<mxfile host="app.diagrams.net" modified="2024-01-11T11:34:46.259Z" agent="Mozilla/5.0 (Windows NT 10.0; Win64; x64) AppleWebKit/537.36 (KHTML, like Gecko) Chrome/120.0.0.0 Safari/537.36 Edg/120.0.0.0" version="22.1.18" etag="7WwNui4ToTSpFMDicgmK" type="github">
  <diagram name="Page-1" id="EW2YgvQln4YOO2U99s3w">
    <mxGraphModel>
      <root>
        <mxCell id="0" />
        <mxCell id="1" parent="0" />
      </root>
    </mxGraphModel>
  </diagram>
</mxfile>
